{
  "accessors": [
    {
      "bufferView": 2,
      "componentType": 5126,
      "count": 4,
      "max": [
        0.5,
        0.5,
        0.0
      ],
      "min": [
        -0.5,
        -0.5,
        0.0
      ],
      "type": "VEC3"
    },
    {
      "bufferView": 2,
      "byteOffset": 48,
      "componentType": 5126,
      "count": 4,
      "max": [
        0.0,
        0.0,
        1.0
      ],
      "min": [
        0.0,
        0.0,
        1.0
      ],
      "type": "VEC3"
    },
    {
      "bufferView": 1,
      "componentType": 5126,
      "count": 4,
      "max": [
        1.0,
        1.0
      ],
      "min": [
        0.0,
        0.0
      ],
      "type": "VEC2"
    },
    {
      "bufferView": 0,
      "componentType": 5125,
      "count": 6,
      "type": "SCALAR"
    },
    {
      "bufferView": 2,
      "byteOffset": 96,
      "componentType": 5126,
      "count": 269,
      "max": [
        0.6906300187110901,
        1.515820026397705,
        0.0
      ],
      "min": [
        -0.7068399786949158,
        -1.3464900255203247,
        -0.034690000116825104
      ],
      "type": "VEC3"
    },
    {
      "bufferView": 2,
      "byteOffset": 3324,
      "componentType": 5126,
      "count": 269,
      "max": [
        1.0,
        1.0,
        1.0
      ],
      "min": [
        -1.0,
        -1.0,
        -1.0
      ],
      "type": "VEC3"
    },
    {
      "bufferView": 1,
      "byteOffset": 32,
      "componentType": 5126,
      "count": 269,
      "max": [
        0.9707099795341492,
        0.9351599812507629
      ],
      "min": [
        0.03313000127673149,
        0.19309000670909882
      ],
      "type": "VEC2"
    },
    {
      "bufferView": 0,
      "byteOffset": 24,
      "componentType": 5125,
      "count": 795,
      "type": "SCALAR"
    }
  ],
  "asset": {
    "extras": {
      "author": "chakrapong (https://sketchfab.com/chakrapong)",
      "license": "CC-BY-4.0 (http://creativecommons.org/licenses/by/4.0/)",
      "source": "https://sketchfab.com/3d-models/spades-a-cards-58740c569beb4e2097ddb204af09fefb",
      "title": "Spades-A Cards"
    },
    "generator": "Sketchfab-15.13.0",
    "version": "2.0"
  },
  "bufferViews": [
    {
      "buffer": 0,
      "byteLength": 3204,
      "name": "floatBufferViews",
      "target": 34963
    },
    {
      "buffer": 0,
      "byteLength": 2184,
      "byteOffset": 3204,
      "byteStride": 8,
      "name": "floatBufferViews",
      "target": 34962
    },
    {
      "buffer": 0,
      "byteLength": 6552,
      "byteOffset": 5388,
      "byteStride": 12,
      "name": "floatBufferViews",
      "target": 34962
    }
  ],
  "buffers": [
    {
      "byteLength": 11940,
      "uri": "scene.bin"
    }
  ],
  "extensionsRequired": [
    "KHR_materials_pbrSpecularGlossiness"
  ],
  "extensionsUsed": [
    "KHR_materials_pbrSpecularGlossiness"
  ],
  "images": [
    {
      "uri": "textures/material_diffuse.png"
    },
    {
      "uri": "textures/material_1_diffuse.png"
    }
  ],
  "materials": [
    {
      "alphaMode": "BLEND",
      "doubleSided": true,
      "extensions": {
        "KHR_materials_pbrSpecularGlossiness": {
          "diffuseFactor": [
            1.0,
            1.0,
            1.0,
            1.0
          ],
          "diffuseTexture": {
            "index": 0
          },
          "glossinessFactor": 0.0,
          "specularFactor": [
            0.0,
            0.0,
            0.0
          ]
        }
      },
      "name": "material"
    },
    {
      "doubleSided": true,
      "extensions": {
        "KHR_materials_pbrSpecularGlossiness": {
          "diffuseFactor": [
            1.0,
            1.0,
            1.0,
            1.0
          ],
          "diffuseTexture": {
            "index": 1
          },
          "glossinessFactor": 0.486275,
          "specularFactor": [
            0.0,
            0.0,
            0.0
          ]
        }
      },
      "name": "material_1"
    }
  ],
  "meshes": [
    {
      "name": "Object_0",
      "primitives": [
        {
          "attributes": {
            "NORMAL": 1,
            "POSITION": 0,
            "TEXCOORD_0": 2
          },
          "indices": 3,
          "material": 0,
          "mode": 4
        }
      ]
    },
    {
      "name": "Object_1",
      "primitives": [
        {
          "attributes": {
            "NORMAL": 5,
            "POSITION": 4,
            "TEXCOORD_0": 6
          },
          "indices": 7,
          "material": 1,
          "mode": 4
        }
      ]
    }
  ],
  "nodes": [
    {
      "children": [
        1
      ],
      "matrix": [
        1.0,
        0.0,
        0.0,
        0.0,
        0.0,
        2.220446049250313e-16,
        -1.0,
        0.0,
        0.0,
        1.0,
        2.220446049250313e-16,
        0.0,
        0.0,
        0.0,
        0.0,
        1.0
      ],
      "name": "Sketchfab_model"
    },
    {
      "children": [
        2
      ],
      "name": "root"
    },
    {
      "children": [
        3
      ],
      "matrix": [
        1.0,
        0.0,
        0.0,
        0.0,
        0.0,
        2.220446049250313e-16,
        1.0,
        0.0,
        0.0,
        -1.0,
        2.220446049250313e-16,
        0.0,
        0.0,
        0.0,
        0.0,
        1.0
      ],
      "name": "GLTF_SceneRootNode"
    },
    {
      "children": [
        4
      ],
      "name": "root_1"
    },
    {
      "children": [
        5,
        7
      ],
      "matrix": [
        0.0010000000474974513,
        0.0,
        0.0,
        0.0,
        0.0,
        0.0010000000474974513,
        0.0,
        0.0,
        0.0,
        0.0,
        0.0010000000474974513,
        0.0,
        0.0,
        0.0,
        0.0,
        1.0
      ],
      "name": "node_id492_6"
    },
    {
      "children": [
        6
      ],
      "matrix": [
        462.7690689002705,
        -2.3853255835011508e-05,
        3.220303101173211,
        0.0,
        0.0002059729574390551,
        691.8206782779856,
        -0.024474633481884566,
        0.0,
        -0.006958600621400406,
        3.5378350134046694e-05,
        0.999975788019772,
        0.0,
        110.99594116210938,
        2.135528564453125,
        262.38299560546875,
        1.0
      ],
      "name": "_0"
    },
    {
      "mesh": 0,
      "name": "Object_6"
    },
    {
      "children": [
        8
      ],
      "matrix": [
        -0.9962173469819083,
        -0.002537364359770357,
        -0.08674612336226062,
        0.0,
        0.002537730939107734,
        -0.9980372697325469,
        4.902368273341705e-05,
        0.0,
        -0.08674607087877483,
        -0.00017163660454922838,
        0.9962217646968378,
        0.0,
        108.13021850585938,
        22.019554138183594,
        260.64935302734375,
        1.0
      ],
      "name": "node_id87_9"
    },
    {
      "children": [
        9
      ],
      "matrix": [
        -3.690283169799898,
        -5.484034830714947e-07,
        -0.2954748612658003,
        0.0,
        -0.07935726323168996,
        -3.5288214437945812e-06,
        0.9911190808336863,
        0.0,
        -1.7298370469031318e-06,
        4.014256000493472,
        1.4154018214342215e-05,
        0.0,
        0.0,
        0.0,
        0.0,
        1.0
      ],
      "name": "node_id58_10"
    },
    {
      "children": [
        10
      ],
      "matrix": [
        -89.26209259033199,
        -2.1574815161989415e-12,
        -2.8215906688697883e-06,
        0.0,
        -1.9098922251767827e-06,
        2.037215702819283e-05,
        60.42016601562153,
        0.0,
        -6.681667521148751e-13,
        49.449760437008905,
        -1.6673212781922725e-05,
        0.0,
        0.0,
        0.0,
        0.0,
        1.0
      ],
      "name": "node_id48_11"
    },
    {
      "children": [
        11
      ],
      "name": "node_id49_12"
    },
    {
      "children": [
        12
      ],
      "name": "node_id50_13"
    },
    {
      "mesh": 1,
      "name": "Object_12"
    }
  ],
  "samplers": [
    {
      "magFilter": 9729,
      "minFilter": 9987,
      "wrapS": 10497,
      "wrapT": 10497
    }
  ],
  "scene": 0,
  "scenes": [
    {
      "name": "Sketchfab_Scene",
      "nodes": [
        0
      ]
    }
  ],
  "textures": [
    {
      "sampler": 0,
      "source": 0
    },
    {
      "sampler": 0,
      "source": 1
    }
  ]
}
